<mxfile host="app.diagrams.net" modified="2023-11-23T10:54:13.685Z" agent="Mozilla/5.0 (Windows NT 10.0; Win64; x64) AppleWebKit/537.36 (KHTML, like Gecko) Chrome/119.0.0.0 Safari/537.36" etag="FeXen--jWihkZIu9qbrT" version="22.1.3" type="device">
  <diagram id="C5RBs43oDa-KdzZeNtuy" name="Page-1">
    <mxGraphModel dx="1318" dy="562" grid="1" gridSize="10" guides="1" tooltips="1" connect="1" arrows="1" fold="1" page="1" pageScale="1" pageWidth="827" pageHeight="1169" math="0" shadow="0">
      <root>
        <mxCell id="WIyWlLk6GJQsqaUBKTNV-0" />
        <mxCell id="WIyWlLk6GJQsqaUBKTNV-1" parent="WIyWlLk6GJQsqaUBKTNV-0" />
        <mxCell id="q_23Jyesp9wn6j7jOfoA-0" value="" style="edgeStyle=orthogonalEdgeStyle;rounded=0;orthogonalLoop=1;jettySize=auto;html=1;" edge="1" parent="WIyWlLk6GJQsqaUBKTNV-1" source="q_23Jyesp9wn6j7jOfoA-1" target="q_23Jyesp9wn6j7jOfoA-3">
          <mxGeometry relative="1" as="geometry" />
        </mxCell>
        <mxCell id="q_23Jyesp9wn6j7jOfoA-1" value="start" style="ellipse;whiteSpace=wrap;html=1;" vertex="1" parent="WIyWlLk6GJQsqaUBKTNV-1">
          <mxGeometry x="110" y="10" width="120" height="80" as="geometry" />
        </mxCell>
        <mxCell id="q_23Jyesp9wn6j7jOfoA-2" value="" style="edgeStyle=orthogonalEdgeStyle;rounded=0;orthogonalLoop=1;jettySize=auto;html=1;" edge="1" parent="WIyWlLk6GJQsqaUBKTNV-1" source="q_23Jyesp9wn6j7jOfoA-3" target="q_23Jyesp9wn6j7jOfoA-8">
          <mxGeometry relative="1" as="geometry" />
        </mxCell>
        <mxCell id="q_23Jyesp9wn6j7jOfoA-3" value="input n" style="shape=parallelogram;perimeter=parallelogramPerimeter;whiteSpace=wrap;html=1;fixedSize=1;" vertex="1" parent="WIyWlLk6GJQsqaUBKTNV-1">
          <mxGeometry x="110" y="180" width="120" height="60" as="geometry" />
        </mxCell>
        <mxCell id="q_23Jyesp9wn6j7jOfoA-4" value="" style="edgeStyle=orthogonalEdgeStyle;rounded=0;orthogonalLoop=1;jettySize=auto;html=1;" edge="1" parent="WIyWlLk6GJQsqaUBKTNV-1" source="q_23Jyesp9wn6j7jOfoA-5" target="q_23Jyesp9wn6j7jOfoA-10">
          <mxGeometry relative="1" as="geometry" />
        </mxCell>
        <mxCell id="q_23Jyesp9wn6j7jOfoA-5" value="i&amp;lt;n" style="rhombus;whiteSpace=wrap;html=1;" vertex="1" parent="WIyWlLk6GJQsqaUBKTNV-1">
          <mxGeometry x="130" y="450" width="80" height="80" as="geometry" />
        </mxCell>
        <mxCell id="q_23Jyesp9wn6j7jOfoA-6" value="" style="edgeStyle=orthogonalEdgeStyle;rounded=0;orthogonalLoop=1;jettySize=auto;html=1;" edge="1" parent="WIyWlLk6GJQsqaUBKTNV-1" source="q_23Jyesp9wn6j7jOfoA-8" target="q_23Jyesp9wn6j7jOfoA-5">
          <mxGeometry relative="1" as="geometry" />
        </mxCell>
        <mxCell id="q_23Jyesp9wn6j7jOfoA-7" style="edgeStyle=orthogonalEdgeStyle;rounded=0;orthogonalLoop=1;jettySize=auto;html=1;entryX=0;entryY=0.5;entryDx=0;entryDy=0;" edge="1" parent="WIyWlLk6GJQsqaUBKTNV-1" source="q_23Jyesp9wn6j7jOfoA-8" target="q_23Jyesp9wn6j7jOfoA-16">
          <mxGeometry relative="1" as="geometry">
            <Array as="points">
              <mxPoint x="40" y="350" />
              <mxPoint x="40" y="890" />
            </Array>
          </mxGeometry>
        </mxCell>
        <mxCell id="q_23Jyesp9wn6j7jOfoA-8" value="i=0" style="whiteSpace=wrap;html=1;" vertex="1" parent="WIyWlLk6GJQsqaUBKTNV-1">
          <mxGeometry x="110" y="320" width="120" height="60" as="geometry" />
        </mxCell>
        <mxCell id="q_23Jyesp9wn6j7jOfoA-9" value="" style="edgeStyle=orthogonalEdgeStyle;rounded=0;orthogonalLoop=1;jettySize=auto;html=1;" edge="1" parent="WIyWlLk6GJQsqaUBKTNV-1" source="q_23Jyesp9wn6j7jOfoA-10" target="q_23Jyesp9wn6j7jOfoA-12">
          <mxGeometry relative="1" as="geometry" />
        </mxCell>
        <mxCell id="q_23Jyesp9wn6j7jOfoA-10" value="input a[i]" style="shape=parallelogram;perimeter=parallelogramPerimeter;whiteSpace=wrap;html=1;fixedSize=1;" vertex="1" parent="WIyWlLk6GJQsqaUBKTNV-1">
          <mxGeometry x="110" y="590" width="120" height="60" as="geometry" />
        </mxCell>
        <mxCell id="q_23Jyesp9wn6j7jOfoA-11" style="edgeStyle=orthogonalEdgeStyle;rounded=0;orthogonalLoop=1;jettySize=auto;html=1;entryX=1;entryY=0.5;entryDx=0;entryDy=0;" edge="1" parent="WIyWlLk6GJQsqaUBKTNV-1" source="q_23Jyesp9wn6j7jOfoA-12" target="q_23Jyesp9wn6j7jOfoA-8">
          <mxGeometry relative="1" as="geometry">
            <Array as="points">
              <mxPoint x="360" y="720" />
              <mxPoint x="360" y="350" />
            </Array>
          </mxGeometry>
        </mxCell>
        <mxCell id="q_23Jyesp9wn6j7jOfoA-12" value="i++" style="rounded=0;whiteSpace=wrap;html=1;" vertex="1" parent="WIyWlLk6GJQsqaUBKTNV-1">
          <mxGeometry x="110" y="690" width="120" height="60" as="geometry" />
        </mxCell>
        <mxCell id="q_23Jyesp9wn6j7jOfoA-13" value="true" style="text;html=1;strokeColor=none;fillColor=none;align=center;verticalAlign=middle;whiteSpace=wrap;rounded=0;" vertex="1" parent="WIyWlLk6GJQsqaUBKTNV-1">
          <mxGeometry x="110" y="400" width="60" height="30" as="geometry" />
        </mxCell>
        <mxCell id="q_23Jyesp9wn6j7jOfoA-14" value="" style="edgeStyle=orthogonalEdgeStyle;rounded=0;orthogonalLoop=1;jettySize=auto;html=1;" edge="1" parent="WIyWlLk6GJQsqaUBKTNV-1" source="q_23Jyesp9wn6j7jOfoA-16" target="q_23Jyesp9wn6j7jOfoA-19">
          <mxGeometry relative="1" as="geometry" />
        </mxCell>
        <mxCell id="q_23Jyesp9wn6j7jOfoA-15" value="" style="edgeStyle=orthogonalEdgeStyle;rounded=0;orthogonalLoop=1;jettySize=auto;html=1;" edge="1" parent="WIyWlLk6GJQsqaUBKTNV-1" source="q_23Jyesp9wn6j7jOfoA-16" target="q_23Jyesp9wn6j7jOfoA-44">
          <mxGeometry relative="1" as="geometry" />
        </mxCell>
        <mxCell id="q_23Jyesp9wn6j7jOfoA-16" value="case 1" style="rhombus;whiteSpace=wrap;html=1;" vertex="1" parent="WIyWlLk6GJQsqaUBKTNV-1">
          <mxGeometry x="130" y="850" width="80" height="80" as="geometry" />
        </mxCell>
        <mxCell id="q_23Jyesp9wn6j7jOfoA-17" value="false" style="text;html=1;strokeColor=none;fillColor=none;align=center;verticalAlign=middle;whiteSpace=wrap;rounded=0;" vertex="1" parent="WIyWlLk6GJQsqaUBKTNV-1">
          <mxGeometry x="30" y="320" width="60" height="30" as="geometry" />
        </mxCell>
        <mxCell id="q_23Jyesp9wn6j7jOfoA-18" value="" style="edgeStyle=orthogonalEdgeStyle;rounded=0;orthogonalLoop=1;jettySize=auto;html=1;" edge="1" parent="WIyWlLk6GJQsqaUBKTNV-1" source="q_23Jyesp9wn6j7jOfoA-19" target="q_23Jyesp9wn6j7jOfoA-22">
          <mxGeometry relative="1" as="geometry" />
        </mxCell>
        <mxCell id="q_23Jyesp9wn6j7jOfoA-19" value="i=0" style="rounded=0;whiteSpace=wrap;html=1;" vertex="1" parent="WIyWlLk6GJQsqaUBKTNV-1">
          <mxGeometry x="250" y="860" width="120" height="60" as="geometry" />
        </mxCell>
        <mxCell id="q_23Jyesp9wn6j7jOfoA-20" value="" style="edgeStyle=orthogonalEdgeStyle;rounded=0;orthogonalLoop=1;jettySize=auto;html=1;" edge="1" parent="WIyWlLk6GJQsqaUBKTNV-1" source="q_23Jyesp9wn6j7jOfoA-22">
          <mxGeometry relative="1" as="geometry">
            <mxPoint x="550" y="890" as="targetPoint" />
          </mxGeometry>
        </mxCell>
        <mxCell id="q_23Jyesp9wn6j7jOfoA-21" style="edgeStyle=orthogonalEdgeStyle;rounded=0;orthogonalLoop=1;jettySize=auto;html=1;" edge="1" parent="WIyWlLk6GJQsqaUBKTNV-1" source="q_23Jyesp9wn6j7jOfoA-22">
          <mxGeometry relative="1" as="geometry">
            <mxPoint x="1550" y="1060" as="targetPoint" />
            <Array as="points">
              <mxPoint x="465" y="1010" />
              <mxPoint x="466" y="1090" />
            </Array>
          </mxGeometry>
        </mxCell>
        <mxCell id="q_23Jyesp9wn6j7jOfoA-22" value="i&amp;lt;n" style="rhombus;whiteSpace=wrap;html=1;" vertex="1" parent="WIyWlLk6GJQsqaUBKTNV-1">
          <mxGeometry x="425" y="850" width="80" height="80" as="geometry" />
        </mxCell>
        <mxCell id="q_23Jyesp9wn6j7jOfoA-23" value="" style="edgeStyle=orthogonalEdgeStyle;rounded=0;orthogonalLoop=1;jettySize=auto;html=1;" edge="1" parent="WIyWlLk6GJQsqaUBKTNV-1" source="q_23Jyesp9wn6j7jOfoA-24" target="q_23Jyesp9wn6j7jOfoA-27">
          <mxGeometry relative="1" as="geometry" />
        </mxCell>
        <mxCell id="q_23Jyesp9wn6j7jOfoA-24" value="j = i-1&lt;br&gt;temp = a[i]" style="whiteSpace=wrap;html=1;rounded=0;" vertex="1" parent="WIyWlLk6GJQsqaUBKTNV-1">
          <mxGeometry x="550" y="860" width="120" height="60" as="geometry" />
        </mxCell>
        <mxCell id="q_23Jyesp9wn6j7jOfoA-25" value="" style="edgeStyle=orthogonalEdgeStyle;rounded=0;orthogonalLoop=1;jettySize=auto;html=1;" edge="1" parent="WIyWlLk6GJQsqaUBKTNV-1" source="q_23Jyesp9wn6j7jOfoA-27" target="q_23Jyesp9wn6j7jOfoA-29">
          <mxGeometry relative="1" as="geometry" />
        </mxCell>
        <mxCell id="q_23Jyesp9wn6j7jOfoA-26" style="edgeStyle=orthogonalEdgeStyle;rounded=0;orthogonalLoop=1;jettySize=auto;html=1;" edge="1" parent="WIyWlLk6GJQsqaUBKTNV-1" source="q_23Jyesp9wn6j7jOfoA-27">
          <mxGeometry relative="1" as="geometry">
            <mxPoint x="795" y="720" as="targetPoint" />
          </mxGeometry>
        </mxCell>
        <mxCell id="q_23Jyesp9wn6j7jOfoA-27" value="j &amp;gt;=0 &amp;amp;&amp;amp;a[j]&amp;lt; temp" style="rhombus;whiteSpace=wrap;html=1;" vertex="1" parent="WIyWlLk6GJQsqaUBKTNV-1">
          <mxGeometry x="730" y="850" width="130" height="80" as="geometry" />
        </mxCell>
        <mxCell id="q_23Jyesp9wn6j7jOfoA-28" value="" style="edgeStyle=orthogonalEdgeStyle;rounded=0;orthogonalLoop=1;jettySize=auto;html=1;" edge="1" parent="WIyWlLk6GJQsqaUBKTNV-1" source="q_23Jyesp9wn6j7jOfoA-29" target="q_23Jyesp9wn6j7jOfoA-31">
          <mxGeometry relative="1" as="geometry" />
        </mxCell>
        <mxCell id="q_23Jyesp9wn6j7jOfoA-29" value="a[j+1] = a[j]&lt;br&gt;j =j-1&lt;br&gt;a[j+1] = temp" style="rounded=0;whiteSpace=wrap;html=1;" vertex="1" parent="WIyWlLk6GJQsqaUBKTNV-1">
          <mxGeometry x="900" y="860" width="120" height="60" as="geometry" />
        </mxCell>
        <mxCell id="q_23Jyesp9wn6j7jOfoA-30" style="edgeStyle=orthogonalEdgeStyle;rounded=0;orthogonalLoop=1;jettySize=auto;html=1;entryX=0.5;entryY=0;entryDx=0;entryDy=0;" edge="1" parent="WIyWlLk6GJQsqaUBKTNV-1" source="q_23Jyesp9wn6j7jOfoA-31" target="q_23Jyesp9wn6j7jOfoA-22">
          <mxGeometry relative="1" as="geometry">
            <Array as="points">
              <mxPoint x="1120" y="720" />
              <mxPoint x="465" y="720" />
            </Array>
          </mxGeometry>
        </mxCell>
        <mxCell id="q_23Jyesp9wn6j7jOfoA-31" value="i++" style="rounded=0;whiteSpace=wrap;html=1;" vertex="1" parent="WIyWlLk6GJQsqaUBKTNV-1">
          <mxGeometry x="1060" y="860" width="120" height="60" as="geometry" />
        </mxCell>
        <mxCell id="q_23Jyesp9wn6j7jOfoA-32" value="true" style="text;html=1;strokeColor=none;fillColor=none;align=center;verticalAlign=middle;whiteSpace=wrap;rounded=0;" vertex="1" parent="WIyWlLk6GJQsqaUBKTNV-1">
          <mxGeometry x="840" y="860" width="60" height="30" as="geometry" />
        </mxCell>
        <mxCell id="q_23Jyesp9wn6j7jOfoA-33" value="true" style="text;html=1;strokeColor=none;fillColor=none;align=center;verticalAlign=middle;whiteSpace=wrap;rounded=0;" vertex="1" parent="WIyWlLk6GJQsqaUBKTNV-1">
          <mxGeometry x="490" y="850" width="60" height="30" as="geometry" />
        </mxCell>
        <mxCell id="q_23Jyesp9wn6j7jOfoA-34" value="false" style="text;html=1;strokeColor=none;fillColor=none;align=center;verticalAlign=middle;whiteSpace=wrap;rounded=0;" vertex="1" parent="WIyWlLk6GJQsqaUBKTNV-1">
          <mxGeometry x="750" y="810" width="60" height="30" as="geometry" />
        </mxCell>
        <mxCell id="q_23Jyesp9wn6j7jOfoA-35" value="false" style="text;html=1;strokeColor=none;fillColor=none;align=center;verticalAlign=middle;whiteSpace=wrap;rounded=0;" vertex="1" parent="WIyWlLk6GJQsqaUBKTNV-1">
          <mxGeometry x="450" y="970" width="60" height="30" as="geometry" />
        </mxCell>
        <mxCell id="q_23Jyesp9wn6j7jOfoA-36" value="" style="edgeStyle=orthogonalEdgeStyle;rounded=0;orthogonalLoop=1;jettySize=auto;html=1;" edge="1" parent="WIyWlLk6GJQsqaUBKTNV-1" source="q_23Jyesp9wn6j7jOfoA-37" target="q_23Jyesp9wn6j7jOfoA-40">
          <mxGeometry relative="1" as="geometry" />
        </mxCell>
        <mxCell id="q_23Jyesp9wn6j7jOfoA-37" value="i=0" style="rounded=0;whiteSpace=wrap;html=1;" vertex="1" parent="WIyWlLk6GJQsqaUBKTNV-1">
          <mxGeometry x="250" y="1190" width="120" height="60" as="geometry" />
        </mxCell>
        <mxCell id="q_23Jyesp9wn6j7jOfoA-38" value="" style="edgeStyle=orthogonalEdgeStyle;rounded=0;orthogonalLoop=1;jettySize=auto;html=1;" edge="1" parent="WIyWlLk6GJQsqaUBKTNV-1" source="q_23Jyesp9wn6j7jOfoA-40">
          <mxGeometry relative="1" as="geometry">
            <mxPoint x="550" y="1220" as="targetPoint" />
          </mxGeometry>
        </mxCell>
        <mxCell id="q_23Jyesp9wn6j7jOfoA-39" style="edgeStyle=orthogonalEdgeStyle;rounded=0;orthogonalLoop=1;jettySize=auto;html=1;" edge="1" parent="WIyWlLk6GJQsqaUBKTNV-1" source="q_23Jyesp9wn6j7jOfoA-40">
          <mxGeometry relative="1" as="geometry">
            <Array as="points">
              <mxPoint x="465" y="1420" />
              <mxPoint x="1550" y="1420" />
              <mxPoint x="1550" y="650" />
              <mxPoint x="397" y="650" />
            </Array>
            <mxPoint x="40" y="810" as="targetPoint" />
          </mxGeometry>
        </mxCell>
        <mxCell id="q_23Jyesp9wn6j7jOfoA-40" value="i&amp;lt;n-1" style="rhombus;whiteSpace=wrap;html=1;" vertex="1" parent="WIyWlLk6GJQsqaUBKTNV-1">
          <mxGeometry x="425" y="1180" width="80" height="80" as="geometry" />
        </mxCell>
        <mxCell id="q_23Jyesp9wn6j7jOfoA-41" value="" style="edgeStyle=orthogonalEdgeStyle;rounded=0;orthogonalLoop=1;jettySize=auto;html=1;" edge="1" parent="WIyWlLk6GJQsqaUBKTNV-1">
          <mxGeometry relative="1" as="geometry">
            <mxPoint x="670" y="1220" as="sourcePoint" />
            <mxPoint x="730" y="1220" as="targetPoint" />
          </mxGeometry>
        </mxCell>
        <mxCell id="q_23Jyesp9wn6j7jOfoA-42" value="" style="edgeStyle=orthogonalEdgeStyle;rounded=0;orthogonalLoop=1;jettySize=auto;html=1;" edge="1" parent="WIyWlLk6GJQsqaUBKTNV-1" source="q_23Jyesp9wn6j7jOfoA-44" target="q_23Jyesp9wn6j7jOfoA-37">
          <mxGeometry relative="1" as="geometry" />
        </mxCell>
        <mxCell id="q_23Jyesp9wn6j7jOfoA-43" value="" style="edgeStyle=orthogonalEdgeStyle;rounded=0;orthogonalLoop=1;jettySize=auto;html=1;" edge="1" parent="WIyWlLk6GJQsqaUBKTNV-1" source="q_23Jyesp9wn6j7jOfoA-44" target="q_23Jyesp9wn6j7jOfoA-63">
          <mxGeometry relative="1" as="geometry" />
        </mxCell>
        <mxCell id="q_23Jyesp9wn6j7jOfoA-44" value="case 2" style="rhombus;whiteSpace=wrap;html=1;" vertex="1" parent="WIyWlLk6GJQsqaUBKTNV-1">
          <mxGeometry x="130" y="1180" width="80" height="80" as="geometry" />
        </mxCell>
        <mxCell id="q_23Jyesp9wn6j7jOfoA-45" value="" style="edgeStyle=orthogonalEdgeStyle;rounded=0;orthogonalLoop=1;jettySize=auto;html=1;" edge="1" parent="WIyWlLk6GJQsqaUBKTNV-1" source="q_23Jyesp9wn6j7jOfoA-47" target="q_23Jyesp9wn6j7jOfoA-50">
          <mxGeometry relative="1" as="geometry" />
        </mxCell>
        <mxCell id="q_23Jyesp9wn6j7jOfoA-46" style="edgeStyle=orthogonalEdgeStyle;rounded=0;orthogonalLoop=1;jettySize=auto;html=1;entryX=0.5;entryY=1;entryDx=0;entryDy=0;" edge="1" parent="WIyWlLk6GJQsqaUBKTNV-1" source="q_23Jyesp9wn6j7jOfoA-47" target="q_23Jyesp9wn6j7jOfoA-54">
          <mxGeometry relative="1" as="geometry">
            <Array as="points">
              <mxPoint x="770" y="1350" />
              <mxPoint x="1280" y="1350" />
            </Array>
          </mxGeometry>
        </mxCell>
        <mxCell id="q_23Jyesp9wn6j7jOfoA-47" value="j&amp;lt; n" style="rhombus;whiteSpace=wrap;html=1;" vertex="1" parent="WIyWlLk6GJQsqaUBKTNV-1">
          <mxGeometry x="730" y="1180" width="80" height="80" as="geometry" />
        </mxCell>
        <mxCell id="q_23Jyesp9wn6j7jOfoA-48" value="j = i+1" style="rounded=0;whiteSpace=wrap;html=1;" vertex="1" parent="WIyWlLk6GJQsqaUBKTNV-1">
          <mxGeometry x="550" y="1190" width="120" height="60" as="geometry" />
        </mxCell>
        <mxCell id="q_23Jyesp9wn6j7jOfoA-49" style="edgeStyle=orthogonalEdgeStyle;rounded=0;orthogonalLoop=1;jettySize=auto;html=1;" edge="1" parent="WIyWlLk6GJQsqaUBKTNV-1" source="q_23Jyesp9wn6j7jOfoA-50">
          <mxGeometry relative="1" as="geometry">
            <mxPoint x="930" y="1130" as="targetPoint" />
          </mxGeometry>
        </mxCell>
        <mxCell id="q_23Jyesp9wn6j7jOfoA-50" value="a[i] &amp;gt; a[j]" style="rhombus;whiteSpace=wrap;html=1;" vertex="1" parent="WIyWlLk6GJQsqaUBKTNV-1">
          <mxGeometry x="890" y="1180" width="80" height="80" as="geometry" />
        </mxCell>
        <mxCell id="q_23Jyesp9wn6j7jOfoA-51" value="" style="edgeStyle=orthogonalEdgeStyle;rounded=0;orthogonalLoop=1;jettySize=auto;html=1;" edge="1" parent="WIyWlLk6GJQsqaUBKTNV-1" source="q_23Jyesp9wn6j7jOfoA-52" target="q_23Jyesp9wn6j7jOfoA-54">
          <mxGeometry relative="1" as="geometry">
            <Array as="points">
              <mxPoint x="1190" y="1220" />
              <mxPoint x="1190" y="1220" />
            </Array>
          </mxGeometry>
        </mxCell>
        <mxCell id="q_23Jyesp9wn6j7jOfoA-52" value="temp = a[i]&lt;br&gt;a[i] = a[j]&lt;br&gt;a[j] = temp" style="rounded=0;whiteSpace=wrap;html=1;" vertex="1" parent="WIyWlLk6GJQsqaUBKTNV-1">
          <mxGeometry x="1020" y="1190" width="120" height="60" as="geometry" />
        </mxCell>
        <mxCell id="q_23Jyesp9wn6j7jOfoA-53" style="edgeStyle=orthogonalEdgeStyle;rounded=0;orthogonalLoop=1;jettySize=auto;html=1;entryX=0.5;entryY=0;entryDx=0;entryDy=0;" edge="1" parent="WIyWlLk6GJQsqaUBKTNV-1" source="q_23Jyesp9wn6j7jOfoA-54" target="q_23Jyesp9wn6j7jOfoA-40">
          <mxGeometry relative="1" as="geometry">
            <Array as="points">
              <mxPoint x="1280" y="1130" />
              <mxPoint x="465" y="1130" />
            </Array>
          </mxGeometry>
        </mxCell>
        <mxCell id="q_23Jyesp9wn6j7jOfoA-54" value="i++&lt;br&gt;j++" style="whiteSpace=wrap;html=1;rounded=0;" vertex="1" parent="WIyWlLk6GJQsqaUBKTNV-1">
          <mxGeometry x="1220" y="1190" width="120" height="60" as="geometry" />
        </mxCell>
        <mxCell id="q_23Jyesp9wn6j7jOfoA-55" value="true" style="text;html=1;strokeColor=none;fillColor=none;align=center;verticalAlign=middle;whiteSpace=wrap;rounded=0;" vertex="1" parent="WIyWlLk6GJQsqaUBKTNV-1">
          <mxGeometry x="490" y="1190" width="60" height="30" as="geometry" />
        </mxCell>
        <mxCell id="q_23Jyesp9wn6j7jOfoA-56" value="true" style="text;html=1;strokeColor=none;fillColor=none;align=center;verticalAlign=middle;whiteSpace=wrap;rounded=0;" vertex="1" parent="WIyWlLk6GJQsqaUBKTNV-1">
          <mxGeometry x="810" y="1190" width="60" height="30" as="geometry" />
        </mxCell>
        <mxCell id="q_23Jyesp9wn6j7jOfoA-57" value="true" style="text;html=1;strokeColor=none;fillColor=none;align=center;verticalAlign=middle;whiteSpace=wrap;rounded=0;" vertex="1" parent="WIyWlLk6GJQsqaUBKTNV-1">
          <mxGeometry x="960" y="1180" width="60" height="30" as="geometry" />
        </mxCell>
        <mxCell id="q_23Jyesp9wn6j7jOfoA-58" value="false" style="text;html=1;strokeColor=none;fillColor=none;align=center;verticalAlign=middle;whiteSpace=wrap;rounded=0;" vertex="1" parent="WIyWlLk6GJQsqaUBKTNV-1">
          <mxGeometry x="880" y="1145" width="60" height="30" as="geometry" />
        </mxCell>
        <mxCell id="q_23Jyesp9wn6j7jOfoA-59" value="fasle" style="text;html=1;strokeColor=none;fillColor=none;align=center;verticalAlign=middle;whiteSpace=wrap;rounded=0;" vertex="1" parent="WIyWlLk6GJQsqaUBKTNV-1">
          <mxGeometry x="710" y="1280" width="60" height="30" as="geometry" />
        </mxCell>
        <mxCell id="q_23Jyesp9wn6j7jOfoA-60" value="fasle" style="text;html=1;strokeColor=none;fillColor=none;align=center;verticalAlign=middle;whiteSpace=wrap;rounded=0;" vertex="1" parent="WIyWlLk6GJQsqaUBKTNV-1">
          <mxGeometry x="470" y="1270" width="60" height="30" as="geometry" />
        </mxCell>
        <mxCell id="q_23Jyesp9wn6j7jOfoA-61" value="" style="edgeStyle=orthogonalEdgeStyle;rounded=0;orthogonalLoop=1;jettySize=auto;html=1;" edge="1" parent="WIyWlLk6GJQsqaUBKTNV-1" source="q_23Jyesp9wn6j7jOfoA-63" target="q_23Jyesp9wn6j7jOfoA-65">
          <mxGeometry relative="1" as="geometry" />
        </mxCell>
        <mxCell id="q_23Jyesp9wn6j7jOfoA-62" value="" style="edgeStyle=orthogonalEdgeStyle;rounded=0;orthogonalLoop=1;jettySize=auto;html=1;" edge="1" parent="WIyWlLk6GJQsqaUBKTNV-1" source="q_23Jyesp9wn6j7jOfoA-63" target="q_23Jyesp9wn6j7jOfoA-88">
          <mxGeometry relative="1" as="geometry" />
        </mxCell>
        <mxCell id="q_23Jyesp9wn6j7jOfoA-63" value="case 3" style="rhombus;whiteSpace=wrap;html=1;" vertex="1" parent="WIyWlLk6GJQsqaUBKTNV-1">
          <mxGeometry x="130" y="1630" width="80" height="80" as="geometry" />
        </mxCell>
        <mxCell id="q_23Jyesp9wn6j7jOfoA-64" value="" style="edgeStyle=orthogonalEdgeStyle;rounded=0;orthogonalLoop=1;jettySize=auto;html=1;" edge="1" parent="WIyWlLk6GJQsqaUBKTNV-1" source="q_23Jyesp9wn6j7jOfoA-65" target="q_23Jyesp9wn6j7jOfoA-68">
          <mxGeometry relative="1" as="geometry" />
        </mxCell>
        <mxCell id="q_23Jyesp9wn6j7jOfoA-65" value="i=0" style="rounded=0;whiteSpace=wrap;html=1;" vertex="1" parent="WIyWlLk6GJQsqaUBKTNV-1">
          <mxGeometry x="250" y="1640" width="120" height="60" as="geometry" />
        </mxCell>
        <mxCell id="q_23Jyesp9wn6j7jOfoA-66" value="" style="edgeStyle=orthogonalEdgeStyle;rounded=0;orthogonalLoop=1;jettySize=auto;html=1;" edge="1" parent="WIyWlLk6GJQsqaUBKTNV-1" source="q_23Jyesp9wn6j7jOfoA-68">
          <mxGeometry relative="1" as="geometry">
            <mxPoint x="550" y="1670" as="targetPoint" />
          </mxGeometry>
        </mxCell>
        <mxCell id="q_23Jyesp9wn6j7jOfoA-67" style="edgeStyle=orthogonalEdgeStyle;rounded=0;orthogonalLoop=1;jettySize=auto;html=1;" edge="1" parent="WIyWlLk6GJQsqaUBKTNV-1" source="q_23Jyesp9wn6j7jOfoA-68">
          <mxGeometry relative="1" as="geometry">
            <mxPoint x="1550" y="1418" as="targetPoint" />
            <Array as="points">
              <mxPoint x="465" y="1870" />
              <mxPoint x="1550" y="1870" />
              <mxPoint x="1550" y="1418" />
            </Array>
          </mxGeometry>
        </mxCell>
        <mxCell id="q_23Jyesp9wn6j7jOfoA-68" value="i&amp;lt;n-1" style="rhombus;whiteSpace=wrap;html=1;" vertex="1" parent="WIyWlLk6GJQsqaUBKTNV-1">
          <mxGeometry x="425" y="1630" width="80" height="80" as="geometry" />
        </mxCell>
        <mxCell id="q_23Jyesp9wn6j7jOfoA-69" value="" style="edgeStyle=orthogonalEdgeStyle;rounded=0;orthogonalLoop=1;jettySize=auto;html=1;" edge="1" parent="WIyWlLk6GJQsqaUBKTNV-1">
          <mxGeometry relative="1" as="geometry">
            <mxPoint x="670" y="1670" as="sourcePoint" />
            <mxPoint x="730" y="1670" as="targetPoint" />
          </mxGeometry>
        </mxCell>
        <mxCell id="q_23Jyesp9wn6j7jOfoA-70" value="" style="edgeStyle=orthogonalEdgeStyle;rounded=0;orthogonalLoop=1;jettySize=auto;html=1;" edge="1" parent="WIyWlLk6GJQsqaUBKTNV-1" source="q_23Jyesp9wn6j7jOfoA-72" target="q_23Jyesp9wn6j7jOfoA-75">
          <mxGeometry relative="1" as="geometry" />
        </mxCell>
        <mxCell id="q_23Jyesp9wn6j7jOfoA-71" style="edgeStyle=orthogonalEdgeStyle;rounded=0;orthogonalLoop=1;jettySize=auto;html=1;entryX=0.5;entryY=1;entryDx=0;entryDy=0;" edge="1" parent="WIyWlLk6GJQsqaUBKTNV-1" source="q_23Jyesp9wn6j7jOfoA-72" target="q_23Jyesp9wn6j7jOfoA-79">
          <mxGeometry relative="1" as="geometry">
            <Array as="points">
              <mxPoint x="770" y="1800" />
              <mxPoint x="1280" y="1800" />
            </Array>
          </mxGeometry>
        </mxCell>
        <mxCell id="q_23Jyesp9wn6j7jOfoA-72" value="j&amp;lt; n" style="rhombus;whiteSpace=wrap;html=1;" vertex="1" parent="WIyWlLk6GJQsqaUBKTNV-1">
          <mxGeometry x="730" y="1630" width="80" height="80" as="geometry" />
        </mxCell>
        <mxCell id="q_23Jyesp9wn6j7jOfoA-73" value="j = i+1" style="rounded=0;whiteSpace=wrap;html=1;" vertex="1" parent="WIyWlLk6GJQsqaUBKTNV-1">
          <mxGeometry x="550" y="1640" width="120" height="60" as="geometry" />
        </mxCell>
        <mxCell id="q_23Jyesp9wn6j7jOfoA-74" style="edgeStyle=orthogonalEdgeStyle;rounded=0;orthogonalLoop=1;jettySize=auto;html=1;" edge="1" parent="WIyWlLk6GJQsqaUBKTNV-1" source="q_23Jyesp9wn6j7jOfoA-75">
          <mxGeometry relative="1" as="geometry">
            <mxPoint x="930" y="1580" as="targetPoint" />
          </mxGeometry>
        </mxCell>
        <mxCell id="q_23Jyesp9wn6j7jOfoA-75" value="a[j] &amp;lt;a[j+1]" style="rhombus;whiteSpace=wrap;html=1;" vertex="1" parent="WIyWlLk6GJQsqaUBKTNV-1">
          <mxGeometry x="890" y="1630" width="80" height="80" as="geometry" />
        </mxCell>
        <mxCell id="q_23Jyesp9wn6j7jOfoA-76" value="" style="edgeStyle=orthogonalEdgeStyle;rounded=0;orthogonalLoop=1;jettySize=auto;html=1;" edge="1" parent="WIyWlLk6GJQsqaUBKTNV-1" source="q_23Jyesp9wn6j7jOfoA-77" target="q_23Jyesp9wn6j7jOfoA-79">
          <mxGeometry relative="1" as="geometry">
            <Array as="points">
              <mxPoint x="1190" y="1670" />
              <mxPoint x="1190" y="1670" />
            </Array>
          </mxGeometry>
        </mxCell>
        <mxCell id="q_23Jyesp9wn6j7jOfoA-77" value="temp = a[j]&lt;br&gt;a[i] = a[j+1]&lt;br&gt;a[j+1] = temp" style="rounded=0;whiteSpace=wrap;html=1;" vertex="1" parent="WIyWlLk6GJQsqaUBKTNV-1">
          <mxGeometry x="1020" y="1640" width="120" height="60" as="geometry" />
        </mxCell>
        <mxCell id="q_23Jyesp9wn6j7jOfoA-78" style="edgeStyle=orthogonalEdgeStyle;rounded=0;orthogonalLoop=1;jettySize=auto;html=1;entryX=0.5;entryY=0;entryDx=0;entryDy=0;" edge="1" parent="WIyWlLk6GJQsqaUBKTNV-1" source="q_23Jyesp9wn6j7jOfoA-79" target="q_23Jyesp9wn6j7jOfoA-68">
          <mxGeometry relative="1" as="geometry">
            <Array as="points">
              <mxPoint x="1280" y="1580" />
              <mxPoint x="465" y="1580" />
            </Array>
          </mxGeometry>
        </mxCell>
        <mxCell id="q_23Jyesp9wn6j7jOfoA-79" value="i++&lt;br&gt;j++" style="whiteSpace=wrap;html=1;rounded=0;" vertex="1" parent="WIyWlLk6GJQsqaUBKTNV-1">
          <mxGeometry x="1220" y="1640" width="120" height="60" as="geometry" />
        </mxCell>
        <mxCell id="q_23Jyesp9wn6j7jOfoA-80" value="true" style="text;html=1;strokeColor=none;fillColor=none;align=center;verticalAlign=middle;whiteSpace=wrap;rounded=0;" vertex="1" parent="WIyWlLk6GJQsqaUBKTNV-1">
          <mxGeometry x="490" y="1640" width="60" height="30" as="geometry" />
        </mxCell>
        <mxCell id="q_23Jyesp9wn6j7jOfoA-81" value="true" style="text;html=1;strokeColor=none;fillColor=none;align=center;verticalAlign=middle;whiteSpace=wrap;rounded=0;" vertex="1" parent="WIyWlLk6GJQsqaUBKTNV-1">
          <mxGeometry x="810" y="1640" width="60" height="30" as="geometry" />
        </mxCell>
        <mxCell id="q_23Jyesp9wn6j7jOfoA-82" value="true" style="text;html=1;strokeColor=none;fillColor=none;align=center;verticalAlign=middle;whiteSpace=wrap;rounded=0;" vertex="1" parent="WIyWlLk6GJQsqaUBKTNV-1">
          <mxGeometry x="960" y="1630" width="60" height="30" as="geometry" />
        </mxCell>
        <mxCell id="q_23Jyesp9wn6j7jOfoA-83" value="false" style="text;html=1;strokeColor=none;fillColor=none;align=center;verticalAlign=middle;whiteSpace=wrap;rounded=0;" vertex="1" parent="WIyWlLk6GJQsqaUBKTNV-1">
          <mxGeometry x="880" y="1595" width="60" height="30" as="geometry" />
        </mxCell>
        <mxCell id="q_23Jyesp9wn6j7jOfoA-84" value="fasle" style="text;html=1;strokeColor=none;fillColor=none;align=center;verticalAlign=middle;whiteSpace=wrap;rounded=0;" vertex="1" parent="WIyWlLk6GJQsqaUBKTNV-1">
          <mxGeometry x="710" y="1730" width="60" height="30" as="geometry" />
        </mxCell>
        <mxCell id="q_23Jyesp9wn6j7jOfoA-85" value="false" style="text;html=1;strokeColor=none;fillColor=none;align=center;verticalAlign=middle;whiteSpace=wrap;rounded=0;" vertex="1" parent="WIyWlLk6GJQsqaUBKTNV-1">
          <mxGeometry x="450" y="1730" width="60" height="30" as="geometry" />
        </mxCell>
        <mxCell id="q_23Jyesp9wn6j7jOfoA-86" value="" style="edgeStyle=orthogonalEdgeStyle;rounded=0;orthogonalLoop=1;jettySize=auto;html=1;" edge="1" parent="WIyWlLk6GJQsqaUBKTNV-1" source="q_23Jyesp9wn6j7jOfoA-88" target="q_23Jyesp9wn6j7jOfoA-89">
          <mxGeometry relative="1" as="geometry" />
        </mxCell>
        <mxCell id="q_23Jyesp9wn6j7jOfoA-87" value="" style="edgeStyle=orthogonalEdgeStyle;rounded=0;orthogonalLoop=1;jettySize=auto;html=1;" edge="1" parent="WIyWlLk6GJQsqaUBKTNV-1" source="q_23Jyesp9wn6j7jOfoA-88" target="q_23Jyesp9wn6j7jOfoA-91">
          <mxGeometry relative="1" as="geometry" />
        </mxCell>
        <mxCell id="q_23Jyesp9wn6j7jOfoA-88" value="case 4" style="rhombus;whiteSpace=wrap;html=1;" vertex="1" parent="WIyWlLk6GJQsqaUBKTNV-1">
          <mxGeometry x="130" y="1930" width="80" height="80" as="geometry" />
        </mxCell>
        <mxCell id="q_23Jyesp9wn6j7jOfoA-89" value="end" style="shape=parallelogram;perimeter=parallelogramPerimeter;whiteSpace=wrap;html=1;fixedSize=1;" vertex="1" parent="WIyWlLk6GJQsqaUBKTNV-1">
          <mxGeometry x="270" y="1940" width="120" height="60" as="geometry" />
        </mxCell>
        <mxCell id="q_23Jyesp9wn6j7jOfoA-90" style="edgeStyle=orthogonalEdgeStyle;rounded=0;orthogonalLoop=1;jettySize=auto;html=1;" edge="1" parent="WIyWlLk6GJQsqaUBKTNV-1" source="q_23Jyesp9wn6j7jOfoA-91">
          <mxGeometry relative="1" as="geometry">
            <mxPoint x="1550" y="1870" as="targetPoint" />
            <Array as="points">
              <mxPoint x="1550" y="2130" />
              <mxPoint x="1550" y="1870" />
            </Array>
          </mxGeometry>
        </mxCell>
        <mxCell id="q_23Jyesp9wn6j7jOfoA-91" value="vui long nhap tu 1-4" style="shape=parallelogram;perimeter=parallelogramPerimeter;whiteSpace=wrap;html=1;fixedSize=1;" vertex="1" parent="WIyWlLk6GJQsqaUBKTNV-1">
          <mxGeometry x="110" y="2100" width="120" height="60" as="geometry" />
        </mxCell>
      </root>
    </mxGraphModel>
  </diagram>
</mxfile>
